<?xml version="1.0" encoding="utf-8"?>
<!-- Generator: Adobe Illustrator 26.2.1, SVG Export Plug-In . SVG Version: 6.00 Build 0)  -->
<svg version="1.1" id="Layer_1" xmlns="http://www.w3.org/2000/svg" xmlns:xlink="http://www.w3.org/1999/xlink" x="0px" y="0px"
	 viewBox="0 0 440 68" style="enable-background:new 0 0 440 68;" xml:space="preserve">
<style type="text/css">
	.st0{fill:#262626;}
</style>
<g>
	<g>
		<g>
			<polygon class="st0" points="192.6,24.6 192.6,24.6 192.6,24.6 			"/>
		</g>
		<g>
			<path class="st0" d="M231.4,29.9l0.1-1.7l-4.7,4.4l-0.1,1.7l-3.6,3.4L222,43l4.6-4.3l-0.1,1.7l4.7-4.4l0.1-1.7l3.6-3.3l1.2-5.3
				L231.4,29.9z M233.5,31.3l-2.9,2.7l-0.1,1.6l-3.2,3l0.1-1.6l-3.5,3.3l0.6-2.9l3-2.8l0.1-1.5l3.2-3l-0.1,1.6l3.5-3.3L233.5,31.3z"
				/>
		</g>
		<g>
			<g>
				<path class="st0" d="M242.2,17.2c0,0,0,0.3,0,0.3c0.2-0.4,0.8-1.8,1.1-1.6c0,0,0.4,0.2,0.3,1.9l-0.4,0.4c0,0-0.1,0.1-0.1,0.2
					l0,0.4c0,0,0,0,0.1,0l0.4-0.4c0,0.2-0.2,0.6-0.4,1c0,0.1,0,0.2,0,0.2c0,0,0.1-0.1,0.2-0.1c0.2,0,0.3,0.6,0.3,0.6c0,0,0,0,0,0
					l0,0c0,0,0,0,0,0c0,0,0.3-1.1,0.4-1.2c0-0.1,0.2-0.2,0.2-0.2c0,0,0.1-0.3,0-0.3c-0.2,0.1-0.3-0.1-0.3-0.3l0.4-0.4
					c0,0,0.1-0.1,0.1-0.2l0-0.4c0,0,0,0-0.1,0l-0.4,0.4c0.2-1.8,0.7-3,0.7-3c0.5-0.9,0.8-0.4,1-0.3c0,0,0,0,0,0c0,0,0.1-0.1,0-0.1
					c0-0.4,0-1.3-0.4-1.2c0,0-0.4-0.1-1,1.6c0.3-1.1,0.4-1.9,0.4-1.9s0.1-0.8-0.2-1.2c0,0-0.1-0.1-0.2,0c-0.1,0.1-0.2,0.3-0.2,0.4
					c-0.5,1-0.5,1.8-0.5,1.8s-0.1,0.9,0.1,1.6c-0.4-0.6-0.9,0-0.9,0C242.2,15.9,242.2,16.7,242.2,17.2
					C242.1,17.2,242.1,17.3,242.2,17.2z"/>
			</g>
			<g>
				<path class="st0" d="M249.1,3c-0.1,0-0.2,0.1-0.3,0.1c0,0-10.9,10-14.1,13c-0.4,0.4-0.5,0.8-0.5,0.8l-0.5,2.5l4.6-2.4l-21.7,19
					l0,0L195,17l4.6,2.4l-0.5-2.5c0,0-0.1-0.4-0.5-0.8c-3.1-3-14.1-13-14.1-13c0,0-0.1-0.1-0.3-0.1c-0.1,0-0.1,0.2-0.1,0.2
					c0,0,0.4,4.4,0.8,8.5c0.4,4.8,0.7,6.9,0.7,6.9c0.2,1.1,0.8,3,2.1,4.5c0.2,0.3,5,6,5,6l0,0l0.3,2c0.3,1.7,1,3.3,2.3,4.6
					c0.2,0.2,0.6,0.7,1.2,1.4c3.1,3.4,10.6,11.6,12.8,14c0.3,0.3,0.7,0.8,0.8,1.1c0.1,0.2,0.4,0.9,0.5,1.2c0.2,1.1,0.9,3.3,1.6,5.8
					l0.2,0.5c0,0,0.2,0.6,0.3,0.8c0.3,0.6,0.6,1,0.6,1l3.1,3.7c0,0,0.1,0.1,0.1,0.1h0c0.1,0,0.1,0,0.1-0.1l3.1-3.7
					c0,0,0.3-0.4,0.6-1c0.1-0.2,0.3-0.8,0.3-0.8l0.2-0.5c0.7-2.4,1.4-4.7,1.6-5.8c0.1-0.3,0.4-1,0.5-1.2c0.1-0.2,0.5-0.7,0.8-1.1
					c2.2-2.3,9.7-10.5,12.8-14c0.6-0.7,1.1-1.2,1.2-1.4c1.2-1.4,2-2.9,2.3-4.6l0.3-2l0,0c0.1-0.1,4.8-5.7,5-6c1.3-1.5,2-3.4,2.1-4.5
					c0,0,0.3-2,0.7-6.9c0.3-4.1,0.8-8.5,0.8-8.5C249.2,3.2,249.2,3.1,249.1,3z M192.3,14.6c0,0-0.4-0.1-0.4,0.4c0,0.1,0,0.2,0,0.5
					l0,0l0.8,10.1c-2.2-2.4-4.1-4.4-4.4-4.8c-1-1.2-1.1-2.5-1.1-2.5L186,6c0,0,5.1,4.8,10.2,9.6l0,0L192.3,14.6z M214.4,59
					c0,0-0.1-0.2-0.1-0.2c0-0.1-0.1-0.1-0.1-0.3c-0.3-1.5-1.5-7.6-1.6-8.2c-0.1-0.3-0.1-0.5-0.3-0.8c-0.2-0.5-0.6-0.8-0.6-0.8
					S197.1,34.1,196,33c-1.5-1.6-1.6-3.5-1.6-3.5l-1-11.9c0,0,18.1,16,19.7,17.5c0.6,0.5,1,1.1,1.2,1.6c0.4,0.9,0.4,1.7,0.4,1.7
					l1,22.5L214.4,59z M238.9,29.4c0,0-0.1,2-1.6,3.5c-1.1,1.1-15.7,15.8-15.7,15.8s-0.3,0.3-0.6,0.8c-0.1,0.3-0.2,0.5-0.3,0.8
					c-0.2,0.6-1.4,6.7-1.6,8.2c0,0.1,0,0.2-0.1,0.3c0,0.1-0.1,0.2-0.1,0.2l-1.5,1.9l1-22.5c0,0,0-0.8,0.4-1.7c0.2-0.5,0.6-1,1.2-1.6
					c1.7-1.5,19.7-17.5,19.7-17.5L238.9,29.4z M246.2,18.3c0,0-0.1,1.4-1.1,2.5c-0.3,0.4-2.2,2.5-4.4,4.8l0.8-10.1v0
					c0-0.3,0-0.5,0-0.5c0-0.4-0.4-0.4-0.4-0.4l-3.9,1l0,0c5.1-4.8,10.2-9.6,10.2-9.6L246.2,18.3z"/>
			</g>
		</g>
		<g>
			<path class="st0" d="M207.6,30.6l0.2,4.6l-7-6.5l-0.3-4.4L207.6,30.6z M194.6,27.2l-0.4-4.6l6.6,6.1l0.3,4.6L194.6,27.2z
				 M201.4,37.9l-0.3-4.5l6.9,6.5l0.3,4.9L201.4,37.9z M208.1,39.9l-0.2-4.7l6.8,6.3l0.2,4.8L208.1,39.9z"/>
		</g>
		<g>
			<path class="st0" d="M191.8,20.4l-4.5-4.4l-0.5-4.5l4.7,4.4l0.4,4.7L191.8,20.4z"/>
		</g>
		<g>
			<path class="st0" d="M191.6,11.8L195,15l-3.2-0.8L191.6,11.8z"/>
		</g>
	</g>
	<g>
		<path class="st0" d="M28.1,43.5h2.7c0,1.2-0.2,2-0.4,2.8c-0.9,2.3-3.2,3.6-5.5,3.6h-0.2c-2.3,0-4.5-1.3-5.5-3.6
			c-0.3-0.7-0.4-1.6-0.4-2.8V37c0-1.2,0.1-2.1,0.4-2.8c0.9-2.3,3.2-3.6,5.5-3.6h0.2c2.3,0,4.6,1.3,5.5,3.6c0.3,0.7,0.4,1.5,0.4,2.6
			h-2.7c0-0.7-0.1-1.4-0.3-1.9c-0.6-1.2-1.8-1.7-3-1.7h-0.2c-1.2,0-2.4,0.5-3,1.7c-0.2,0.5-0.3,1.3-0.3,2.1v6.4
			c0,0.8,0.1,1.6,0.3,2.1c0.6,1.2,1.8,1.7,3,1.7h0.2c1.2,0,2.4-0.5,3-1.7C27.9,45,28.1,44.3,28.1,43.5z"/>
		<path class="st0" d="M38.4,37c0-1.2,0.1-2.1,0.4-2.8c0.9-2.3,3.2-3.6,5.5-3.6h0.2c2.3,0,4.5,1.3,5.5,3.6c0.3,0.7,0.4,1.6,0.4,2.8
			v6.4c0,1.2-0.1,2.1-0.4,2.8c-0.9,2.3-3.2,3.6-5.5,3.6h-0.2c-2.3,0-4.5-1.3-5.5-3.6c-0.3-0.7-0.4-1.6-0.4-2.8V37z M47.8,37
			c0-0.8-0.1-1.6-0.3-2.1c-0.6-1.2-1.8-1.7-3-1.7h-0.2c-1.2,0-2.4,0.5-3,1.7C41.1,35.5,41,36.2,41,37v6.4c0,0.8,0.1,1.6,0.3,2.1
			c0.6,1.2,1.8,1.7,3,1.7h0.2c1.2,0,2.4-0.5,3-1.7c0.2-0.5,0.3-1.3,0.3-2.1V37z"/>
		<path class="st0" d="M71.1,49.5h-2.9c-0.5-0.5-0.7-1.4-0.7-2.2l-0.3-3.4c-0.1-1.8-1.2-2.4-3.1-2.4h-2.9v8h-2.6V30.9h5.3
			c0.8,0,1.6,0.1,2.2,0.2c2.4,0.5,4,2.1,4,4.7c0,1.8-1,3.4-2.8,4.2v0c1.6,0.6,2.5,1.6,2.6,3.5l0.3,3.5C70.2,48,70.4,49,71.1,49.5
			L71.1,49.5z M61.2,33.4V39h2.7c2.3,0,3.5-1.2,3.5-3c0-1.3-0.7-2.1-2-2.4c-0.4-0.1-1-0.1-1.7-0.1H61.2z"/>
		<path class="st0" d="M83.8,46.6L83.8,46.6l4.3-15.7h2.8l-5.3,18.6h-3.5l-5.3-18.6h2.8L83.8,46.6z"/>
		<path class="st0" d="M98.1,30.9H109v2.6h-8.3v5.2h6.8v2.6h-6.8V47h8.3v2.6H98.1V30.9z"/>
		<path class="st0" d="M129,30.9v2.6h-5.1v16.1h-2.6V33.5h-5.1v-2.6H129z"/>
		<path class="st0" d="M148.7,30.9v2.6h-5.1v16.1h-2.6V33.5h-5.1v-2.6H148.7z"/>
		<path class="st0" d="M156.2,30.9h10.9v2.6h-8.3v5.2h6.8v2.6h-6.8V47h8.3v2.6h-10.9V30.9z"/>
	</g>
	<g>
		<path class="st0" d="M270.3,43.5h2.7c0,1.2-0.2,2-0.4,2.8c-0.9,2.3-3.2,3.6-5.5,3.6h-0.2c-2.3,0-4.5-1.3-5.5-3.6
			c-0.3-0.7-0.4-1.6-0.4-2.8V37c0-1.2,0.1-2.1,0.4-2.8c0.9-2.3,3.2-3.6,5.5-3.6h0.2c2.3,0,4.6,1.3,5.5,3.6c0.3,0.7,0.4,1.5,0.4,2.6
			h-2.7c0-0.7-0.1-1.4-0.3-1.9c-0.6-1.2-1.8-1.7-3-1.7h-0.2c-1.2,0-2.4,0.5-3,1.7c-0.2,0.5-0.3,1.3-0.3,2.1v6.4
			c0,0.8,0.1,1.6,0.3,2.1c0.6,1.2,1.8,1.7,3,1.7h0.2c1.2,0,2.4-0.5,3-1.7C270.2,45,270.3,44.3,270.3,43.5z"/>
		<path class="st0" d="M280.6,37c0-1.2,0.1-2.1,0.4-2.8c0.9-2.3,3.2-3.6,5.5-3.6h0.2c2.3,0,4.5,1.3,5.5,3.6c0.3,0.7,0.4,1.6,0.4,2.8
			v6.4c0,1.2-0.1,2.1-0.4,2.8c-0.9,2.3-3.2,3.6-5.5,3.6h-0.2c-2.3,0-4.5-1.3-5.5-3.6c-0.3-0.7-0.4-1.6-0.4-2.8V37z M290.1,37
			c0-0.8-0.1-1.6-0.3-2.1c-0.6-1.2-1.8-1.7-3-1.7h-0.2c-1.2,0-2.4,0.5-3,1.7c-0.2,0.5-0.3,1.3-0.3,2.1v6.4c0,0.8,0.1,1.6,0.3,2.1
			c0.6,1.2,1.8,1.7,3,1.7h0.2c1.2,0,2.4-0.5,3-1.7c0.2-0.5,0.3-1.3,0.3-2.1V37z"/>
		<path class="st0" d="M303.4,35.4c0,0,0,0.8,0,1.4v12.7h-2.5V30.9h3.1l6.7,14.1h0c0,0,0-0.8,0-1.4V30.9h2.5v18.6H310L303.4,35.4
			L303.4,35.4z"/>
		<path class="st0" d="M330.8,43.5h2.7c0,1.2-0.2,2-0.4,2.8c-0.9,2.3-3.2,3.6-5.5,3.6h-0.2c-2.3,0-4.5-1.3-5.5-3.6
			c-0.3-0.7-0.4-1.6-0.4-2.8V37c0-1.2,0.1-2.1,0.4-2.8c0.9-2.3,3.2-3.6,5.5-3.6h0.2c2.3,0,4.6,1.3,5.5,3.6c0.3,0.7,0.4,1.5,0.4,2.6
			h-2.7c0-0.7-0.1-1.4-0.3-1.9c-0.6-1.2-1.8-1.7-3-1.7h-0.2c-1.2,0-2.4,0.5-3,1.7c-0.2,0.5-0.3,1.3-0.3,2.1v6.4
			c0,0.8,0.1,1.6,0.3,2.1c0.6,1.2,1.8,1.7,3,1.7h0.2c1.2,0,2.4-0.5,3-1.7C330.6,45,330.8,44.3,330.8,43.5z"/>
		<path class="st0" d="M341.2,30.9h2.6v18.6h-2.6V30.9z"/>
		<path class="st0" d="M352.2,30.9h10.9v2.6h-8.3v5.2h6.8v2.6h-6.8V47h8.3v2.6h-10.9V30.9z"/>
		<path class="st0" d="M383.3,49.5h-2.9c-0.5-0.5-0.7-1.4-0.7-2.2l-0.3-3.4c-0.1-1.8-1.2-2.4-3.1-2.4h-2.9v8h-2.6V30.9h5.3
			c0.8,0,1.6,0.1,2.2,0.2c2.4,0.5,4,2.1,4,4.7c0,1.8-1,3.4-2.8,4.2v0c1.6,0.6,2.5,1.6,2.6,3.5l0.3,3.5C382.4,48,382.6,49,383.3,49.5
			L383.3,49.5z M373.4,33.4V39h2.7c2.3,0,3.5-1.2,3.5-3c0-1.3-0.7-2.1-2-2.4c-0.4-0.1-1-0.1-1.7-0.1H373.4z"/>
		<path class="st0" d="M396.3,47.3c1.7,0,3.4-0.9,3.4-4v-0.6h-3.5v-2.5h6v9.4H401l-0.6-1.9c-1,1.4-2.5,2.1-4.2,2.1H396
			c-2.3,0-4.4-1.2-5.4-3.6c-0.3-0.7-0.4-1.6-0.4-2.8V37c0-1.2,0.1-2.1,0.4-2.8c0.9-2.3,3.2-3.6,5.5-3.6h0.2c2.3,0,4.7,1.2,5.5,3.6
			c0.2,0.7,0.4,1.4,0.4,2.4h-2.7c0-0.6-0.1-1.2-0.3-1.6c-0.5-1.2-1.8-1.8-2.9-1.8h-0.2c-1.2,0-2.4,0.5-3,1.7
			c-0.2,0.5-0.3,1.3-0.3,2.1v6.4c0,0.8,0.1,1.6,0.4,2.1c0.6,1.2,1.8,1.7,2.9,1.7H396.3z"/>
		<path class="st0" d="M410.5,30.9h10.9v2.6h-8.3v5.2h6.8v2.6h-6.8V47h8.3v2.6h-10.9V30.9z"/>
	</g>
</g>
</svg>
