<svg xmlns="http://www.w3.org/2000/svg" xmlns:xlink="http://www.w3.org/1999/xlink" version="1.0" id="katman_1" x="0px" y="0px" viewBox="0 0 600 400" style="enable-background:new 0 0 600 400;" xml:space="preserve">
<style type="text/css">
	.st0{fill-rule:evenodd;clip-rule:evenodd;fill:#C41B1E;stroke:#ffffff;stroke-width:0.1889;stroke-miterlimit:2.6131;}
	.st1{fill-rule:evenodd;clip-rule:evenodd;fill:#FFCC00;}
	.st2{fill-rule:evenodd;clip-rule:evenodd;fill:#E30613;stroke:#ffffff;stroke-width:0.1889;stroke-miterlimit:2.6131;}
	.st3{stroke:#ffffff;stroke-width:0.1889;stroke-miterlimit:2.6131;}
	.st4{fill-rule:evenodd;clip-rule:evenodd;}
	.st5{fill:none;stroke:#ffffff;stroke-width:0.1889;stroke-miterlimit:2.6131;}
	.st6{fill-rule:evenodd;clip-rule:evenodd;fill:#000000;}
	.st7{fill-rule:evenodd;clip-rule:evenodd;stroke:#ffffff;stroke-width:0.1889;stroke-miterlimit:2.6131;}
</style>
<g>
	<path class="st0" d="M427.6,156.3l32.5-59c0.8-1.5,1.7-2.1,5.4-2.6l56.1-6.4c3.9-0.4,4.2-0.6,2,3L487.2,149   c-1.1,1.8-3.8,2.4-5.9,2.6L427.6,156.3L427.6,156.3z" fill="#ffffff"/>
	<path d="M180.4,170.4l-6.8-12.2l-53-4.7c-1.2-0.1-2.6-0.3-3.8-0.8c-1.4-0.5-2.7-1.4-3.5-2.7L76.8,92.3c-1.9-3.1-2.5-4.5-0.6-5.7   c0.9-0.6,2.1-0.5,4.1-0.2l0.4,0l56.1,6.4c2,0.2,3.4,0.6,4.4,1.1c1.2,0.6,1.8,1.4,2.4,2.5l4.7,8.5l101.1,11.5   c5.4,0.6,10.7,3.2,14.4,7.2c0.7,0.8,1.4,1.6,2,2.5c0.6,0.9,1.1,1.8,1.6,2.8l0,0l26.1,59.8l-11,25.2l-10.8-25   c-1.1-2.4-3.7-4.3-6.5-5.3c-0.5-0.2-1.1-0.4-1.7-0.5c-0.6-0.1-1.1-0.2-1.7-0.3v0l0,0l-74.8-7.8c-2-0.2-3.9-1.3-5.3-2.8   c-0.3-0.3-0.5-0.6-0.7-0.9v0C180.8,171.1,180.6,170.8,180.4,170.4L180.4,170.4L180.4,170.4L180.4,170.4L180.4,170.4z" fill="#ffffff"/>
	<path class="st1" d="M468.9,132h2.2c0,0,10.6-18.5,12.3-21.2c1.9-2.7,1.7-10.4,0.8-10.8c-1.1-0.4-7.9,9.3-9.4,11.7   C473.5,114.3,468.9,132,468.9,132L468.9,132L468.9,132z" fill="#ffffff"/>
	<path class="st1" d="M467.6,132h-2.2c0,0,1.7-11.7-0.5-11c-3.1,0.9-5.5,1.8-5.5,1.8s8.1-9.9,10-7.9   C469.3,115,471.7,118.9,467.6,132L467.6,132L467.6,132z" fill="#ffffff"/>
	<path class="st1" d="M472.2,132h2.9c0,0,13.8-20.1,17.6-11.3c0,0-0.4-7.9-3.1-7.9C487,112.8,480.7,118.5,472.2,132L472.2,132   L472.2,132z" fill="#ffffff"/>
	<polygon class="st1" points="463.3,136.2 474.1,136.2 474.7,133.3 464.1,133.3 463.3,136.2  " fill="#ffffff"/>
	<polygon class="st1" points="465.5,137.3 470.4,137.3 465,142.8 465.5,137.3  " fill="#ffffff"/>
	<path class="st2" d="M455.1,106.7L420,169.5c-1,1.8-3.1,3.4-5.2,3.7l-74.8,7.8c-4.5,0.5-9.7,3.1-11.5,7.3L304.9,243   c-2.7,6.3-5,5.1-5.9,3.3l-5.2-10.4c-1.3-2.6-1-6.1,0.1-8.8l42.5-97.3c2.7-6.3,9.6-10.6,16.4-11.4L455.1,106.7L455.1,106.7z" fill="#ffffff"/>
	<path class="st3" d="M444.9,121l6.6-12l-98.4,11.2c-4.5,0.5-8.9,2.7-12,6c-0.6,0.6-1.1,1.3-1.6,2c-0.5,0.7-0.9,1.4-1.2,2.2l0,0   l-42.5,97.3c-0.7,1.6-1,3.6-0.8,5.4c0.1,0.3,0.1,0.7,0.2,1c0.1,0.3,0.2,0.6,0.3,0.9v0l0,0l5.2,10.4c0.1,0.1,0.1,0.2,0.2,0.3   c0.1,0,0.1-0.1,0.2-0.2c0.6-0.6,1.2-1.6,2-3.3l23.7-54.7c1.5-3.5,5-6.1,8.7-7.4c0.7-0.3,1.4-0.5,2.2-0.6c0.7-0.2,1.4-0.3,2.2-0.4h0   l0,0l74.8-7.8c1-0.1,2.1-0.7,2.9-1.6c0.1-0.2,0.3-0.3,0.4-0.5l0,0c0.1-0.2,0.3-0.4,0.4-0.5l0,0l0,0l0,0L444.9,121L444.9,121z    M428.5,158.2l-6.8,12.2v0l0,0h0c-0.2,0.3-0.4,0.7-0.6,1v0c-0.2,0.3-0.5,0.6-0.7,0.9c-1.4,1.5-3.3,2.6-5.3,2.8l-74.8,7.8l0,0v0   c-0.5,0.1-1.1,0.2-1.7,0.3c-0.6,0.1-1.2,0.3-1.7,0.5c-2.8,1-5.4,2.9-6.5,5.3l-23.7,54.7c-1,2.3-1.9,3.7-2.9,4.6   c-0.9,0.8-1.8,1.2-2.6,1.3c-1,0.1-1.9-0.2-2.6-0.8c-0.6-0.5-1-1.1-1.4-1.7l-5.2-10.4l0,0l0,0l0,0c-0.2-0.4-0.4-0.9-0.6-1.4   c-0.1-0.5-0.3-1-0.3-1.5c-0.4-2.5,0-5.2,1-7.5l42.5-97.3l0,0c0.4-1,1-1.9,1.6-2.8c0.6-0.9,1.3-1.7,2-2.5c3.7-4,9.1-6.6,14.4-7.2   l101.1-11.5l4.7-8.5c0.6-1.1,1.2-1.9,2.4-2.5c1-0.5,2.3-0.8,4.4-1.1l56.1-6.4l0.4,0c2-0.2,3.1-0.4,4.1,0.2c1.9,1.2,1.3,2.6-0.6,5.7   l-36.4,57.8c-0.8,1.3-2.1,2.1-3.5,2.7c-1.3,0.5-2.6,0.7-3.8,0.8L428.5,158.2L428.5,158.2z M456.8,107.7l-8,14.3l-17.7,32.1   l50.1-4.4c0.9-0.1,1.9-0.2,2.8-0.6c0.7-0.3,1.3-0.6,1.6-1.1L522,90.3l0,0l-0.1,0l-56.1,6.4c-1.6,0.2-2.5,0.4-3.1,0.7   c-0.3,0.2-0.6,0.5-0.8,0.9l-3.4,6.1l0.1,0L456.8,107.7L456.8,107.7z" fill="#ffffff"/>
	<polygon class="st4" points="59.8,324.7 58.7,324.2 57.2,323.3 55.5,322.2 55.1,321.1 55.1,319.5 55.1,318 55.5,315.7 59.8,306    61.7,302.9 64.2,300.2 65.7,299.1 67.8,298.4 70.4,298 73.4,298 121.6,298 122,298 122,299.1 120.5,302.2 120.1,302.9 119.1,303.3    74.8,303.3 72.3,303.8 71.2,304.9 70.8,306 66.3,316.2 66.3,317.3 66.3,318.4 66.8,318.9 68.3,319.5 112.5,319.5 112.9,319.5    112.9,320.6 111.4,323.8 111,324.2 110.1,324.7 59.8,324.7  " fill="#ffffff"/>
	<polygon class="st4" points="536.4,314.1 537.5,313.5 537.9,312.6 539.6,309.2 539.6,308.7 538.9,308.1 496.1,308.1 495.3,308.7    494.6,309.2 493.2,312.6 493.2,313.5 493.6,314.1 536.4,314.1  " fill="#ffffff"/>
	<polygon class="st4" points="379.1,314.1 380,313.5 380.7,312.6 382.2,309.2 382.2,308.7 381.5,308.1 336.7,308.1 335.6,308.7    334.9,309.2 333.4,312.6 333.4,313.5 334,314.1 379.1,314.1  " fill="#ffffff"/>
	<polygon class="st1" points="352.9,142.3 371.4,141 374.4,133.7 396.6,132.2 394.7,138.4 417.8,136.2 407.7,148.1 390.1,149.7    387.5,156.1 364.6,157.6 366.9,152.1 343.2,154.4 352.9,142.3  " fill="#ffffff"/>
	<polygon points="329.7,259.1 329.7,252.8 327.5,252.8 327.5,251.5 333.5,251.5 333.5,252.8 331.3,252.8 331.3,259.1 329.7,259.1     " fill="#ffffff"/>
	<polygon points="334.5,259.1 334.5,251.5 336.8,251.5 338.2,256.7 339.5,251.5 341.8,251.5 341.8,259.1 340.4,259.1 340.4,253.1    338.9,259.1 337.4,259.1 335.9,253.1 335.9,259.1 334.5,259.1  " fill="#ffffff"/>
	<path class="st5" d="M329.7,259.1v-6.3h-2.3v-1.3h6v1.3h-2.2v6.3H329.7L329.7,259.1z M334.5,259.1v-7.6h2.3l1.4,5.2l1.4-5.2h2.3   v7.6h-1.4v-6l-1.5,6h-1.5l-1.5-6v6H334.5L334.5,259.1z" fill="#ffffff"/>
	<path class="st6" d="M252.2,178L242,157.1l-35.7-3.8l11,21L252.2,178L252.2,178z M232.4,137.6l-10-20.3l-37.2-4.2l10.9,20.8   L232.4,137.6L232.4,137.6z" fill="#ffffff"/>
	<path class="st6" d="M277.1,160.8l-35.1-3.7l-9.6-19.6l36.2,3.7L277.1,160.8L277.1,160.8z M206.3,153.3l-33-3.5l-10.9-19.5   l33.7,3.5L206.3,153.3L206.3,153.3z" fill="#ffffff"/>
	<polygon class="st6" points="105.2,130.1 130,131.4 118.5,112.3 92.9,110.5 105.2,130.1  " fill="#ffffff"/>
	<path class="st6" d="M107.2,93.4l11.3,18.9l27.7,1.8l10.3,18.7l-26.6-1.4l12.1,20.2l29,2.6l-11.7-21.2h0l-10.3-18.6l-8.8-16   c-0.2-0.4-0.5-0.7-0.8-0.9c-0.6-0.3-1.5-0.5-3.1-0.7L107.2,93.4L107.2,93.4z" fill="#ffffff"/>
	<path class="st7" d="M260.4,192l0.1,0l0.1,0l0.1,0l0,0l0.1,0l0.1,0l0.1,0l0.1,0l0.1,0l0.1,0l0.1,0l0.1,0l0.1,0l0.1,0l0.1,0l0,0   l0.3,0.1l0.2,0.1l0.2,0.1l0.2,0.1l0.2,0.1l0.1,0.1l0.1,0.1l0.1,0.1l0,0l20.3,46.9l0.1,0l0,0.1l0.2,0.4l0.3,0.6l0.1,0.1l5.1,10.3   l0.7,1.4l0.7,1.4l0.7,1.3l0.6,1.2l0.6,1.1l0.6,1.1l0.6,1l0.6,0.9l0.7,0.9l0.7,0.8l0.8,0.8l0.9,0.7l1.1,0.6l1.3,0.5l1.4,0.2l1.5-0.1   l1.3-0.4l1.2-0.6l1-0.7l0.8-0.8l0.7-0.8l0.7-0.9l0.6-0.9l0.6-1l0.6-1.1l0.6-1.2l0.6-1.3l0.7-1.4l0.7-1.5l0.7-1.6l0.7-1.7l0.8-1.8   l23.6-54.4l0,0l0.1-0.1l0.1-0.1l0.1-0.1l0.2-0.1l0.2-0.1l0.2-0.1l0.2-0.1l0.3-0.1l0,0l0.1,0l0.1,0l0.1,0l0.1,0l0.1,0l0.1,0l0.1,0   l0.1,0l0.1,0l0.1,0l0.1,0l0,0l0.1,0l0.1,0l0.1,0l74.9-7.9l1.5-0.2l1.6-0.4l1.5-0.6l1.4-0.7l1.3-0.8l1.2-0.9l1.1-0.9l0.9-0.9   l0.3-0.3l0.2-0.2l0.2-0.2l0.2-0.2l0.2-0.2l0.2-0.2l0.2-0.2l0.2-0.3l0.3-0.4l0.1-0.2l0.2-0.3l0.1-0.2l0.1-0.2l0.3-0.4l1.3-2.3v0   l3.3-5.9l48.2-4.3l0.6-0.1l0.7-0.1l0.7-0.1l0.8-0.1l0.8-0.2l0.8-0.2l0.9-0.2l0.9-0.3l1-0.4l1.1-0.5l1.1-0.6l1.1-0.7l1.1-0.8l1-1   l1-1.1l0.7-1l40.8-64.9l0.8-1.3l0.7-1.2l0.6-1.1l0.6-1.1l0.5-1.1l0.4-1.3l0.1-1.7l-0.5-2.1l-1.4-1.8l-1.7-1l-1.5-0.4l-1.3-0.2   l-1.3,0l-1.3,0.1l-1.5,0.1l-1.6,0.2l-64.6,7.4l-0.9,0.1l-0.9,0.1l-0.9,0.2l-0.9,0.2l-0.9,0.3l-0.9,0.3l-0.9,0.4l-1,0.5l-1.1,0.6   l-1,0.7l-1,0.8l-0.9,0.8l-0.8,0.9l-0.6,0.9l-0.5,0.8l-0.4,0.7l-2.5,4.5l-96.5,11l-1.3,0.2l-1.4,0.3l-1.4,0.3l-1.4,0.4l-1.4,0.4   l-1.3,0.5l-1.3,0.6l-1.3,0.6l-1.3,0.7l-1.2,0.7l-1.2,0.8l-1.2,0.8l-1.1,0.9l-1.1,0.9l-1.1,1l-1,1l-0.4,0.5l-0.4,0.4l-0.4,0.4   l-0.4,0.5l-0.4,0.5l-0.4,0.5l-0.3,0.5l-0.3,0.5l-0.3,0.5L328,122l-0.3,0.5l-0.3,0.5l-0.3,0.5l-0.3,0.5l-0.3,0.6l-0.2,0.5l0,0.1   l-25.4,58.2l-25.4-58.2l0-0.1l-0.2-0.5l-0.3-0.6l-0.3-0.5l-0.3-0.5l-0.3-0.5l-0.3-0.5l-0.3-0.5l-0.3-0.5l-0.3-0.5l-0.3-0.5   l-0.4-0.5l-0.4-0.5l-0.4-0.5l-0.4-0.4l-0.4-0.4l-0.4-0.5l-1-1l-1.1-1l-1.1-0.9l-1.1-0.9l-1.2-0.8l-1.2-0.8l-1.2-0.7l-1.3-0.7   l-1.3-0.6l-1.3-0.6l-1.3-0.5l-1.4-0.4l-1.4-0.4l-1.4-0.3l-1.4-0.3l-1.3-0.2l-96.5-11l-2.5-4.5l-0.4-0.7l-0.5-0.8l-0.6-0.9l-0.8-0.9   l-0.9-0.8l-1-0.8l-1-0.7l-1.1-0.6l-1-0.5l-0.9-0.4l-0.9-0.3l-0.9-0.3l-0.9-0.2l-0.9-0.2l-0.9-0.1l-0.9-0.1l-64.6-7.4l-1.6-0.2   L69.8,76L68.5,76l-1.3,0l-1.3,0.2l-1.5,0.4l-1.7,1l-1.4,1.8l-0.5,2.1l0.1,1.7l0.4,1.3l0.5,1.1l0.6,1.1l0.6,1.1l0.7,1.2l0.8,1.3   l40.8,64.9l0.7,1l1,1.1l1,1l1.1,0.8l1.1,0.7l1.1,0.6l1.1,0.5l1,0.4l0.9,0.3l0.9,0.2l0.8,0.2l0.8,0.2l0.8,0.1l0.7,0.1l0.7,0.1   l0.6,0.1l48.2,4.3l3.3,5.9v0l1.3,2.3l0.3,0.4l0.1,0.2l0.1,0.2l0.2,0.3l0.1,0.2l0.3,0.4l0.2,0.3l0.2,0.2l0.2,0.2l0.2,0.2l0.2,0.2   l0.2,0.2l0.2,0.2l0.3,0.3l0.9,0.9l1.1,0.9l1.2,0.9l1.3,0.8l1.4,0.7l1.5,0.6l1.6,0.4l1.5,0.2L260.4,192L260.4,192z M282.5,226.3   l-15.4-35.4l-0.1-0.2l-0.1-0.2l-0.1-0.2l-0.1-0.2l-0.2-0.2l-0.2-0.2l-0.2-0.2l-0.2-0.2l-0.3-0.2l-0.3-0.2l-0.3-0.2l-0.3-0.2   l-0.3-0.2l-0.4-0.2l-0.4-0.2l-0.4-0.2l-0.1,0l-0.1,0l-0.1,0l-0.2,0l-0.2,0l-0.2,0l-0.2,0l-0.2,0l-0.1,0l-0.2,0l-0.2,0l-0.2,0   l-0.1,0l-0.1,0l-0.1,0l-0.2,0l-74.8-7.9l-1.1-0.2l-1.2-0.3l-1.1-0.4l-1-0.5l-1-0.6l-0.9-0.7l-0.9-0.7l-0.7-0.7l-0.2-0.2l-0.1-0.2   l-0.1-0.2l-0.1-0.2l-0.1-0.2l-0.1-0.2l-0.1-0.2l-0.2-0.2l-0.2-0.3l-0.1-0.2l-0.1-0.2l-0.1-0.2l-0.1-0.1l-0.2-0.3l-0.6-1.2v0l-5.1-9   l-50.6-4.5l-0.5-0.1l-0.6-0.1l-0.6-0.1l-0.6-0.1l-0.6-0.1l-0.7-0.2l-0.7-0.2l-0.7-0.2l-0.8-0.3l-0.8-0.4l-0.8-0.4l-0.8-0.5   l-0.7-0.6l-0.7-0.7l-0.7-0.8l-0.5-0.8L68.3,87.8c-4.3-6.9-4.6-8,4-7l64.6,7.4l0.8,0.1l0.8,0.1l0.8,0.1l0.7,0.2l0.7,0.2l0.7,0.2   l0.7,0.3l0.7,0.3l0.7,0.4l0.7,0.5l0.7,0.5l0.6,0.6l0.5,0.6l0.4,0.6l0.4,0.6l0.3,0.5l3.6,6.5l98.8,11.2l1.2,0.2l1.2,0.2l1.2,0.3   l1.2,0.3l1.2,0.4l1.2,0.4l1.1,0.5l1.1,0.5l1.1,0.6l1.1,0.6l1,0.7l1,0.7l1,0.8l0.9,0.8l0.9,0.8l0.8,0.9l0.4,0.4l0.3,0.4l0.3,0.4   l0.3,0.4l0.3,0.4l0.3,0.4l0.3,0.4l0.3,0.4l0.3,0.4l0.3,0.4l0.3,0.4l0.2,0.4l0.2,0.4l0.2,0.4l0.2,0.5l0.2,0.4l0,0.1l27.1,62.1   l-14.6,33.4l-0.3,0.6l-0.3,0.7l-0.3,0.7l-0.2,0.7L282.5,226.3L282.5,226.3L282.5,226.3z M424.3,174.6l-0.1,0.2l-0.1,0.2l-0.1,0.2   l-0.1,0.2l-0.2,0.2l-0.7,0.7l-0.9,0.7l-0.9,0.7l-1,0.6l-1,0.5l-1.1,0.4l-1.2,0.3l-1.1,0.2l-74.8,7.9l-0.2,0l-0.1,0l-0.1,0l-0.1,0   l-0.2,0l-0.2,0l-0.2,0l-0.1,0l-0.2,0l-0.2,0l-0.2,0l-0.2,0l-0.2,0l-0.1,0l-0.1,0l-0.1,0l-0.4,0.2l-0.4,0.2l-0.4,0.2l-0.3,0.2   l-0.3,0.2l-0.3,0.2l-0.3,0.2l-0.3,0.2l-0.2,0.2l-0.2,0.2l-0.2,0.2l-0.2,0.2l-0.1,0.2l-0.1,0.2l-0.1,0.2l-0.1,0.2l-23.7,54.7   c-8.3,19.1-10,19.1-17.7,3.6l-5.1-10.4l0-0.1l-0.2-0.4l-0.1-0.3l-0.1-0.3l-0.1-0.3l-0.1-0.3l-0.1-0.3l-0.1-0.3l-0.1-0.3l-0.1-0.2   L287,236l-0.1-0.3l-0.1-0.3l-0.1-0.3l-0.1-0.3l-0.1-0.3l0-0.3l-0.1-0.6l-0.1-0.7l0-0.7l0-0.7l0-0.6l0-0.6l0.1-0.6l0.1-0.6l0.1-0.6   l0.1-0.6l0.1-0.6l0.2-0.6l0.2-0.6l0.2-0.6l0.2-0.6l0.2-0.5l42.5-97.3l0-0.1l0.2-0.4l0.2-0.5l0.2-0.4l0.2-0.4l0.2-0.4l0.3-0.4   l0.3-0.4l0.3-0.4l0.3-0.4l0.3-0.4l0.3-0.4l0.3-0.4l0.3-0.4l0.3-0.4l0.3-0.4l0.4-0.4l0.8-0.9l0.9-0.8l0.9-0.8l1-0.8l1-0.7l1-0.7   l1.1-0.6l1.1-0.6l1.1-0.5l1.1-0.5l1.2-0.4l1.2-0.4l1.2-0.3l1.2-0.3l1.2-0.2l1.2-0.2l98.8-11.2l3.6-6.5l0.3-0.5l0.4-0.6l0.4-0.6   l0.5-0.6l0.6-0.6l0.7-0.5l0.7-0.5l0.7-0.4l0.7-0.3l0.7-0.3l0.7-0.2l0.7-0.2l0.7-0.2l0.8-0.1l0.8-0.1l0.8-0.1l64.6-7.4   c8.7-1,8.4,0.1,4,7l-40.7,64.8l-0.5,0.8l-0.7,0.8l-0.7,0.7l-0.7,0.6l-0.8,0.5l-0.8,0.4l-0.8,0.4l-0.8,0.3l-0.7,0.2l-0.7,0.2   l-0.7,0.2l-0.6,0.1l-0.6,0.1L483,158l-0.6,0.1l-0.5,0.1l-50.6,4.5l-5.1,9v0l-0.6,1.2l-0.2,0.3l-0.1,0.1l-0.1,0.2l-0.1,0.2l-0.1,0.2   l-0.2,0.3l-0.2,0.2l-0.1,0.2L424.3,174.6L424.3,174.6z" fill="#ffffff"/>
	<path class="st4" d="M309.9,298h-1.3l-1.4,0.4l-26.9,21.1h-0.8l-0.6-0.7l-9.2-19.8l-1-1.1h-1h-8.1h-1v1.1l11.6,24.3l0.6,0.9   l0.6,0.4h12.2l1.6-1.3l27.4-20h3.9h5.5h31.6v0h30.2l0,0h2l0,0h21l0.4,0.4v0.7l-7.7,19.3l-0.4,0.4l0.6,0.4h9.2l0.8-0.9l7.7-19.3   l1-0.7l0.4-0.4h32.2l1,0.4v0.7l-8.3,19.3v0.9h9.8l0.4-0.9l8.3-19.3l0.4-0.7l1-0.4h7.1v0h36v0H541l1.1-0.4l0.4-0.7l1.5-3.1V298h-0.4   h-16.1v0L309.9,298L309.9,298L309.9,298z M480.1,308.1l-3.7,7.6l-0.4,2.2v1.6v1.6l1.1,1.1l0.8,1.1l1.7,0.9l1.3,0.4h51.3l0.8-0.4   l0.4-0.4l1.5-3.1v-1.1h-0.4h-45.4l-1.1-0.7l-1.1-0.4v-1.1l0.6-1.1l3.2-8.1H480.1L480.1,308.1z M319.4,308.1l-3.3,7.6l-0.7,2.2v1.6   v1.6l1.1,1.1l1.1,1.1l1.6,0.9l1.6,0.4h53.7l0.9-0.4l0.4-0.4l1.6-3.1v-1.1h-0.4h-47.7l-1.6-0.7l-0.4-0.4v-1.1l0.4-1.1l3.4-8.1H319.4   L319.4,308.1z" fill="#ffffff"/>
	<polygon class="st4" points="152.2,298 141.2,298 138.2,298 135.6,298.4 133.4,299.1 131.5,300.2 128.9,302.9 127.3,306 123,315.7    122.1,318 122.1,319.5 122.1,321.1 123,322.2 124.1,323.3 125.6,324.2 127.1,324.7 179.8,324.7 181.5,324.2 183.7,323.3    185.6,322.7 186.7,321.1 188.2,319.5 189.7,316.2 193.6,308.1 182.4,308.1 178.9,316.8 177.8,318 177.4,318.9 175.9,318.9    174.4,319.5 135.6,319.5 134.5,318.9 133.4,318.4 133.4,317.3 134.1,316.2 138.2,306 139,304.9 140.1,303.8 142.3,303.3    174.7,303.3 174.7,303.3 194.9,303.3 199.6,303.3 211,303.3 211,303.3 241.1,303.3 242.1,303.3 242.5,303.8 242.5,304.9    242.1,307.2 241.1,308.1 239.7,308.1 211,308.1 211,308.1 209.9,308.1 209.1,308.7 208.1,309.2 207.1,311.9 207.1,313 207.5,313.5    220.3,318.4 232.3,323.8 234,324.7 251.9,324.7 252.3,324.2 251.9,323.8 251.3,323.3 226.6,314.1 242.1,314.1 245,313.5 247.4,313    249.4,311.4 250.9,309.9 252.3,307.2 253.3,303.8 253.7,301.8 252.7,300.2 252.3,299.1 251.3,298.4 249.4,298 247.4,298 244.5,298    244.5,297.9 152.2,297.9 152.2,298  " fill="#ffffff"/>
</g>
</svg>