<?xml version="1.0" encoding="UTF-8"?>
<svg xmlns="http://www.w3.org/2000/svg" xmlns:xlink="http://www.w3.org/1999/xlink" width="507.36pt" height="580pt" viewBox="0 0 507.36 580" version="1.1">
<defs>
<clipPath id="clip1">
  <path d="M 207 182 L 507.359375 182 L 507.359375 210 L 207 210 Z M 207 182 "/>
</clipPath>
</defs>
<g id="surface1">
<path style=" stroke:none;fill-rule:nonzero;fill:rgb(13.719177%,12.156677%,12.547302%);fill-opacity:1;" d="M 157.4375 88.898438 C 157.4375 88.898438 178.113281 64.078125 195.285156 48.4375 C 202.46875 41.894531 236.46875 9.835938 237.820313 11.210938 C 240.679688 14.128906 224.625 26.003906 214.464844 60.253906 C 201.773438 103.050781 206.578125 151.175781 204.527344 158.496094 C 204.058594 160.175781 196.128906 138.40625 177.261719 122.730469 C 162.253906 110.265625 157.4375 88.898438 157.4375 88.898438 "/>
<path style=" stroke:none;fill-rule:nonzero;fill:rgb(13.719177%,12.156677%,12.547302%);fill-opacity:1;" d="M 252.519531 0 C 252.519531 0 268.941406 10.917969 282.628906 23.167969 C 324.136719 60.324219 349.097656 90.21875 349.097656 90.21875 L 339.519531 109.378906 L 315.574219 136.660156 L 316.878906 120.117188 L 333.835938 100.425781 L 340.914063 88.476563 L 286.109375 34.488281 C 286.109375 34.488281 313.394531 84.878906 300.808594 169.753906 L 286.980469 169.753906 C 286.980469 169.753906 281.964844 109.035156 267.242188 98.324219 L 266.371094 170.921875 L 252.519531 177.886719 "/>
<path style=" stroke:none;fill-rule:nonzero;fill:rgb(13.719177%,12.156677%,12.547302%);fill-opacity:1;" d="M 264.636719 213.585938 C 263.539063 350.25 259.683594 562.292969 258.710938 569.234375 C 257.273438 579.5 252.519531 580 252.519531 580 L 252.519531 217.941406 "/>
<path style=" stroke:none;fill-rule:nonzero;fill:rgb(13.719177%,12.156677%,12.547302%);fill-opacity:1;" d="M 295.6875 231.71875 C 293.691406 247.386719 285.066406 247.519531 285.066406 247.519531 C 285.066406 247.519531 286.621094 234.308594 287.625 215.914063 L 297.429688 216.203125 "/>
<path style=" stroke:none;fill-rule:evenodd;fill:rgb(13.719177%,12.156677%,12.547302%);fill-opacity:1;" d="M 218.1875 169.46875 L 237.34375 169.46875 L 241.699219 173.824219 L 240.246094 95.160156 C 240.246094 95.160156 238.644531 94.375 237.320313 96.324219 C 235.992188 98.277344 220.796875 117.511719 218.1875 169.46875 "/>
<path style=" stroke:none;fill-rule:nonzero;fill:rgb(13.719177%,12.156677%,12.547302%);fill-opacity:1;" d="M 216.066406 216.203125 L 225.867188 215.914063 C 226.871094 234.308594 228.429688 247.519531 228.429688 247.519531 C 228.429688 247.519531 219.804688 247.386719 217.804688 231.71875 "/>
<path style=" stroke:none;fill-rule:evenodd;fill:rgb(65.429688%,11.767578%,13.330078%);fill-opacity:1;" d="M 276.753906 192.722656 C 272.472656 192.722656 270.203125 200.945313 269.472656 202.488281 C 268.769531 203.980469 268.71875 209.871094 274.570313 209.871094 L 325.410156 209.871094 C 325.410156 209.871094 340.445313 202.488281 330.328125 202.488281 C 330.328125 202.488281 285.085938 202.496094 283.871094 202.492188 C 282.660156 202.484375 283.347656 200.023438 285.46875 200.023438 L 328.597656 200.023438 C 328.597656 200.023438 344.636719 192.722656 335.269531 192.722656 "/>
<path style=" stroke:none;fill-rule:evenodd;fill:rgb(65.429688%,11.767578%,13.330078%);fill-opacity:1;" d="M 129.804688 209.867188 C 136.160156 209.871094 138.410156 206.585938 138.410156 206.585938 L 145.820313 194.421875 C 146.332031 193.644531 146.28125 192.722656 145.683594 192.71875 L 131.324219 192.722656 L 126.730469 199.816406 C 126.730469 199.816406 125.152344 202.488281 122.261719 202.488281 C 122.261719 202.488281 19.507813 202.484375 16.183594 202.484375 C 12.859375 202.484375 15.199219 198.71875 15.199219 198.71875 L 18.828125 192.429688 L 19.269531 191.257813 L 20.371094 190.089844 L 23.015625 189.617188 L 62.855469 189.617188 C 64.378906 189.617188 69.652344 186.8125 70.761719 184.664063 C 71.871094 182.515625 69.9375 182 69.9375 182 L 21.472656 182 C 10.984375 182 8.03125 187.140625 8.03125 187.140625 C 8.03125 187.140625 1.871094 198.890625 0.964844 200.503906 C 0.0585938 202.109375 -0.441406 204.261719 0.523438 206.121094 C 0.523438 206.121094 2.476563 209.871094 7.367188 209.871094 L 5.371094 209.871094 "/>
<g clip-path="url(#clip1)" clip-rule="nonzero">
<path style=" stroke:none;fill-rule:evenodd;fill:rgb(65.429688%,11.767578%,13.330078%);fill-opacity:1;" d="M 210.113281 209.839844 C 210.113281 209.839844 224.652344 209.71875 228.976563 209.792969 C 233.304688 209.871094 271.554688 189.679688 271.554688 189.679688 L 359.035156 189.683594 L 350.335938 206.460938 C 350.335938 206.460938 348.5 209.71875 351.230469 209.792969 C 351.230469 209.792969 360.121094 209.71875 361.722656 209.792969 C 363.324219 209.871094 363.65625 208.113281 363.65625 208.113281 L 372.582031 189.683594 L 403.507813 189.683594 L 394.808594 206.535156 C 394.808594 206.535156 392.972656 209.792969 395.703125 209.867188 C 395.703125 209.867188 404.59375 209.792969 406.195313 209.867188 C 407.796875 209.941406 408.125 208.1875 408.125 208.1875 L 417.054688 189.683594 L 497.84375 189.683594 C 500.96875 189.6875 511.53125 182.03125 505.5625 182.015625 L 269.355469 182 L 269.355469 182.015625 C 269.355469 182.015625 267.042969 182.175781 264.894531 183.464844 C 262.550781 184.871094 228.761719 201.777344 228.761719 201.777344 C 227.097656 202.675781 221.222656 204.890625 222.265625 201.722656 L 227.832031 186.859375 C 228.542969 185.3125 229.214844 182 226.359375 182 L 218.410156 182 C 217.019531 182 216.109375 182.257813 215.539063 183.398438 L 214.316406 186.324219 L 207.574219 205.824219 C 207.574219 205.824219 205.359375 209.871094 210.113281 209.839844 "/>
</g>
<path style=" stroke:none;fill-rule:evenodd;fill:rgb(65.429688%,11.767578%,13.330078%);fill-opacity:1;" d="M 207.679688 189.105469 C 207.679688 189.105469 211.496094 182.003906 204.359375 182 L 86.996094 182 C 77.433594 182 75.089844 186.96875 75.089844 186.96875 L 69.082031 197.699219 C 69.082031 197.699219 68.621094 199.652344 70.289063 199.632813 L 83.085938 199.632813 L 86.925781 192.050781 C 86.925781 192.050781 87.515625 189.679688 90.386719 189.671875 C 90.386719 189.671875 189.046875 189.695313 190.351563 189.667969 C 191.65625 189.640625 191.863281 192.824219 190.09375 192.824219 C 188.324219 192.824219 157.828125 192.828125 157.828125 192.828125 C 156.226563 192.988281 152.8125 199.289063 154.378906 200.019531 C 155.90625 200.730469 167.6875 204.902344 167.6875 204.902344 L 181.367188 209.871094 C 181.367188 209.871094 200.726563 209.835938 201.511719 209.84375 C 204.296875 209.871094 204.175781 207.707031 202.453125 207.289063 C 202.453125 207.289063 183.632813 201.136719 179.800781 199.632813 L 197.316406 199.632813 C 200.140625 199.660156 201.109375 198.734375 202.164063 196.9375 "/>
<path style=" stroke:none;fill-rule:evenodd;fill:rgb(65.429688%,11.767578%,13.330078%);fill-opacity:1;" d="M 441.609375 192.722656 C 437.328125 192.722656 435.058594 200.945313 434.328125 202.488281 C 433.625 203.980469 433.578125 209.871094 439.425781 209.871094 L 490.265625 209.871094 C 490.265625 209.871094 505.300781 202.488281 495.183594 202.488281 C 495.183594 202.488281 449.941406 202.496094 448.730469 202.492188 C 447.515625 202.484375 448.203125 200.023438 450.328125 200.023438 L 493.457031 200.023438 C 493.457031 200.023438 509.492188 192.722656 500.125 192.722656 "/>
</g>
</svg>
