<svg xmlns="http://www.w3.org/2000/svg" width="50" height="50" viewBox="0 0 50 50" fill="none">
<path d="M33.8194 47.5H16.611C14.2018 47.5 12.3089 45.6071 12.3089 43.1979V32.9589C12.3089 32.4427 12.6531 32.0985 13.1693 32.0985C13.6856 32.0985 14.0298 32.4427 14.0298 32.9589V43.1979C14.0298 44.6606 15.1483 45.7792 16.611 45.7792H33.8194C35.2822 45.7792 36.4007 44.6606 36.4007 43.1979V32.9589C36.4007 32.4427 36.7449 32.0985 37.2611 32.0985C37.7774 32.0985 38.1215 32.4427 38.1215 32.9589V43.1979C38.1215 45.6071 36.2286 47.5 33.8194 47.5Z" fill="#ffffff"/>
<path d="M37.2611 18.1597C36.7449 18.1597 36.4007 17.8155 36.4007 17.2992V6.8021C36.4007 5.33939 35.2822 4.22084 33.8194 4.22084H16.611C15.1483 4.22084 14.0298 5.33939 14.0298 6.8021V17.2992C14.0298 17.8155 13.6856 18.1597 13.1693 18.1597C12.6531 18.1597 12.3089 17.8155 12.3089 17.2992V6.8021C12.3089 4.39293 14.2018 2.5 16.611 2.5H33.8194C36.2286 2.5 38.1215 4.39293 38.1215 6.8021V17.2992C38.1215 17.8155 37.7774 18.1597 37.2611 18.1597Z" fill="#ffffff"/>
<path d="M25.2152 42.7677C26.1656 42.7677 26.9361 41.9973 26.9361 41.0469C26.9361 40.0965 26.1656 39.3261 25.2152 39.3261C24.2648 39.3261 23.4944 40.0965 23.4944 41.0469C23.4944 41.9973 24.2648 42.7677 25.2152 42.7677Z" fill="#ffffff"/>
<path d="M28.6569 9.29735H21.7735C21.2573 9.29735 20.9131 8.95318 20.9131 8.43692C20.9131 7.92067 21.2573 7.5765 21.7735 7.5765H28.6569C29.1732 7.5765 29.5173 7.92067 29.5173 8.43692C29.5173 8.95318 29.1732 9.29735 28.6569 9.29735Z" fill="#ffffff"/>
<path d="M7.74874 31.6683C7.49062 31.6683 7.31847 31.5823 7.14639 31.4102C3.7047 27.9686 3.7047 22.2898 7.14639 18.762C7.49056 18.4179 8.00683 18.4179 8.351 18.762C8.69517 19.1062 8.69517 19.6224 8.351 19.9666C5.51161 22.806 5.51161 27.3663 8.351 30.1196C8.69517 30.4638 8.69517 30.98 8.351 31.3242C8.17891 31.5823 8.00687 31.6683 7.74874 31.6683Z" fill="#ffffff"/>
<path d="M12.739 28.8289C12.4809 28.8289 12.3088 28.7428 12.1367 28.5708C10.2438 26.6778 10.2438 23.5803 12.1367 21.6874C12.4809 21.3432 12.9972 21.3432 13.3414 21.6874C13.6855 22.0316 13.6855 22.5478 13.3414 22.892C12.1368 24.0966 12.1368 26.1616 13.3414 27.3662C13.6855 27.7104 13.6855 28.2266 13.3414 28.5708C13.1693 28.7428 12.9971 28.8289 12.739 28.8289Z" fill="#ffffff"/>
<path d="M42.2513 31.6682C41.9932 31.6682 41.8212 31.5822 41.6491 31.4101C41.3049 31.066 41.3049 30.5497 41.6491 30.2055C44.4885 27.3661 44.4885 22.8059 41.6491 20.0526C41.3049 19.7084 41.3049 19.1921 41.6491 18.848C41.9933 18.5038 42.5094 18.5038 42.8536 18.848C46.2953 22.2896 46.2953 27.9684 42.8536 31.4961C42.6815 31.5822 42.5095 31.6682 42.2513 31.6682Z" fill="#ffffff"/>
<path d="M37.2611 28.8289C37.0029 28.8289 36.8309 28.7428 36.6588 28.5708C36.3147 28.2266 36.3147 27.7104 36.6588 27.3662C37.8634 26.1616 37.8634 24.0966 36.6588 22.892C36.3147 22.5478 36.3147 22.0316 36.6588 21.6874C37.003 21.3432 37.5193 21.3432 37.8634 21.6874C39.7564 23.5803 39.7564 26.6778 37.8634 28.5708C37.7774 28.7428 37.5192 28.8289 37.2611 28.8289Z" fill="#ffffff"/>
</svg>