<svg xmlns="http://www.w3.org/2000/svg" xmlns:xlink="http://www.w3.org/1999/xlink" version="1.1" id="Layer_1" x="0px" y="0px" viewBox="0 0 50 50" style="enable-background:new 0 0 50 50;" xml:space="preserve">
<style type="text/css">
	.st0{fill:#ffffff;}
</style>
<g>
	<path class="st0" d="M44.8,26.9C44.8,26.9,44.8,26.8,44.8,26.9C44.6,15.9,35.7,7,24.7,7C13.6,7,4.5,16,4.5,27.2   c0,6.4,2.9,12.3,8.1,16.1c0.1,0.1,0.3,0.2,0.5,0.2h23.2c0.2,0,0.3-0.1,0.5-0.2c5.1-3.8,8.1-9.7,8.1-16.1   C44.8,27.1,44.8,27,44.8,26.9z M27.4,41.9h-5.5l-1.6-6.1c0-0.2-0.1-0.4-0.2-0.5h9c-0.1,0.2-0.1,0.4-0.2,0.5L27.4,41.9z M6.1,27.5   l9.6-3.1c-0.3,1-0.5,2-0.5,3c0,1.4,0.3,2.7,0.9,4l-9.7-1.3C6.2,29.2,6.1,28.4,6.1,27.5z M32.5,27.4c0,2.4-1.1,4.7-3,6.2h-9.8   c-1.9-1.5-3-3.7-3-6.2c0-4.3,3.5-7.9,7.9-7.9S32.5,23.1,32.5,27.4z M33.6,24.4l9.6,3.1c0,0.9-0.1,1.8-0.2,2.6l-9.7,1.3   c0.6-1.2,0.9-2.6,0.9-4C34.1,26.4,33.9,25.3,33.6,24.4z M24.7,8.6c9.8,0,17.8,7.6,18.5,17.2l-10.5-3.4C31,19.7,28,18,24.7,18   c-3.4,0-6.3,1.8-8,4.5L6.2,25.8C6.8,16.2,14.9,8.6,24.7,8.6z M6.7,31.7L16,33c1.4,0.5,2.5,1.7,2.8,3.1l1.5,5.7h-7   C10,39.3,7.7,35.7,6.7,31.7z M36,41.9h-7l1.5-5.7c0.4-1.4,1.4-2.6,2.8-3.1l9.3-1.3C41.7,35.7,39.3,39.3,36,41.9z" fill="#ffffff"/>
	<path class="st0" d="M11.1,22.5c0.4,0,0.8-0.4,0.8-0.8v-1.1c0-0.3,0.2-0.6,0.5-0.7l2-0.8v0.9c0,0.4,0.4,0.8,0.8,0.8   c0.4,0,0.8-0.4,0.8-0.8V18c0-0.3-0.1-0.5-0.3-0.7c-0.2-0.2-0.5-0.2-0.7-0.1l-3,1.2c-0.9,0.4-1.5,1.2-1.5,2.2v1.1   C10.3,22.1,10.7,22.5,11.1,22.5z" fill="#ffffff"/>
	<path class="st0" d="M34.2,20.9c0.4,0,0.8-0.4,0.8-0.8v-0.9l2,0.8c0.3,0.1,0.5,0.4,0.5,0.7v1.1c0,0.4,0.4,0.8,0.8,0.8   c0.4,0,0.8-0.4,0.8-0.8v-1.1c0-1-0.6-1.8-1.5-2.2l-3-1.2c-0.2-0.1-0.5-0.1-0.7,0.1c-0.2,0.2-0.3,0.4-0.3,0.7v2.1   C33.4,20.5,33.7,20.9,34.2,20.9z" fill="#ffffff"/>
</g>
</svg>