<svg xmlns="http://www.w3.org/2000/svg" width="50" height="50" viewBox="0 0 50 50" fill="none">
<path d="M38.0769 43.4615H30.3846C26.5385 43.4615 23.4615 40.3846 23.4615 36.5385V13.4615C23.4615 9.61538 26.5385 6.53845 30.3846 6.53845H38.0769C41.9231 6.53845 45 9.61538 45 13.4615V36.5385C45 40.3077 41.8462 43.4615 38.0769 43.4615ZM30.3846 8.07691C27.3846 8.07691 25 10.4615 25 13.4615V36.5385C25 39.5385 27.3846 41.9231 30.3846 41.9231H38.0769C41.0769 41.9231 43.4615 39.5385 43.4615 36.5385V13.4615C43.4615 10.4615 41.0769 8.07691 38.0769 8.07691H30.3846Z" fill="#ffffff"/>
<path d="M21.1538 34.2308H19.6154C19.1538 34.2308 18.8462 33.9231 18.8462 33.4615V16.5385C18.8462 16.0769 19.1538 15.7692 19.6154 15.7692H21.1538C21.6154 15.7692 21.9231 16.0769 21.9231 16.5385C21.9231 17 21.6154 17.3077 21.1538 17.3077H20.3846V32.6923H21.1538C21.6154 32.6923 21.9231 33 21.9231 33.4615C21.9231 33.9231 21.5385 34.2308 21.1538 34.2308Z" fill="#ffffff"/>
<path d="M19.6154 28.0769H5.76923C5.30769 28.0769 5 27.7692 5 27.3077V22.6923C5 22.2308 5.30769 21.9231 5.76923 21.9231H19.6154C20.0769 21.9231 20.3846 22.2308 20.3846 22.6923V27.3077C20.3846 27.6923 20 28.0769 19.6154 28.0769ZM6.53846 26.5384H18.8462V23.4615H6.53846V26.5384Z" fill="#ffffff"/>
<path d="M11.9231 23.4615C11.4615 23.4615 11.1538 23.1538 11.1538 22.6923V7.30768C11.1538 6.84614 11.4615 6.53845 11.9231 6.53845C12.3846 6.53845 12.6923 6.84614 12.6923 7.30768V22.6923C12.6923 23.0769 12.3077 23.4615 11.9231 23.4615Z" fill="#ffffff"/>
<path d="M14.9998 20.3846H8.84597C8.46135 20.3846 8.15366 20.1539 8.07673 19.7692C7.99981 19.3846 8.15366 19.077 8.46135 18.9231L11.6921 17.3077H8.76901C8.3844 17.3077 8.07671 17.0769 7.99978 16.6923C7.92286 16.3077 8.07671 16 8.3844 15.8462L11.6152 14.2308H8.69211C8.30749 14.2308 7.9998 14 7.92288 13.6154C7.84596 13.2308 7.9998 12.9231 8.30749 12.7693L11.5383 11.1538H8.61516C8.15362 11.1538 7.84593 10.8462 7.84593 10.3846C7.84593 9.92308 8.15362 9.61539 8.61516 9.61539H14.769C15.1536 9.61539 15.4613 9.84615 15.5382 10.2308C15.6152 10.6154 15.4613 10.9231 15.1536 11.0769L11.9229 12.6923H14.846C15.2306 12.6923 15.5383 12.9231 15.6152 13.3077C15.6921 13.6923 15.5383 14 15.2306 14.1539L11.9998 15.7692H14.9229C15.3075 15.7692 15.6152 16 15.6921 16.3846C15.769 16.7692 15.6152 17.0769 15.3075 17.2308L12.0767 18.8462H14.9998C15.4613 18.8462 15.769 19.1538 15.769 19.6154C15.769 20.0769 15.3844 20.3846 14.9998 20.3846Z" fill="#ffffff"/>
<path d="M24.2307 16.3077C23.9999 16.3077 23.7691 16.2308 23.6152 16C23.3845 15.6923 23.4614 15.1539 23.7691 14.9231L29.1537 11.0769C29.4614 10.8462 29.846 10.9231 30.0768 11.0769L34.3076 14.5385L38.5383 11.0769C38.846 10.8462 39.2307 10.8462 39.4614 11.0769L44.6153 14.9231C44.923 15.1539 44.9999 15.6923 44.7691 16C44.5383 16.3077 43.9999 16.3846 43.6922 16.1539L38.9999 12.6923L34.7691 16.1539C34.4614 16.3846 34.0768 16.3846 33.7691 16.1539L29.5383 12.6923L24.6153 16.2308C24.5384 16.3077 24.3845 16.3077 24.2307 16.3077Z" fill="#ffffff"/>
<path d="M24.2307 22.2307C23.9999 22.2307 23.7691 22.1538 23.6152 21.923C23.3845 21.6153 23.4614 21.0769 23.7691 20.8461L29.1537 17C29.4614 16.7692 29.846 16.8461 30.0768 17L34.3076 20.4615L38.5383 17C38.846 16.7692 39.2307 16.7692 39.4614 17L44.6153 20.8461C44.923 21.0769 44.9999 21.6153 44.7691 21.923C44.5383 22.2307 43.9999 22.3077 43.6922 22.0769L38.9999 18.6153L34.7691 22.0769C34.4614 22.3077 34.0768 22.3077 33.7691 22.0769L29.5383 18.6153L24.6153 22.1538C24.5384 22.2307 24.3845 22.2307 24.2307 22.2307Z" fill="#ffffff"/>
<path d="M24.2307 28.1538C23.9999 28.1538 23.7691 28.0769 23.6152 27.8461C23.3845 27.5384 23.4614 26.9999 23.7691 26.7692L29.1537 22.923C29.4614 22.6922 29.846 22.7692 30.0768 22.923L34.3076 26.3846L38.5383 22.923C38.846 22.6922 39.2307 22.6922 39.4614 22.923L44.6153 26.7692C44.923 26.9999 44.9999 27.5384 44.7691 27.8461C44.5383 28.1538 43.9999 28.2307 43.6922 28L38.9999 24.5384L34.7691 28C34.4614 28.2307 34.0768 28.2307 33.7691 28L29.5383 24.5384L24.6153 28.0769C24.5384 28.0769 24.3845 28.1538 24.2307 28.1538Z" fill="#ffffff"/>
<path d="M24.2307 34.0769C23.9999 34.0769 23.7691 34 23.6152 33.7693C23.3845 33.4616 23.4614 32.9231 23.7691 32.6923L29.1537 28.8462C29.4614 28.6154 29.846 28.6923 30.0768 28.8462L34.3076 32.3077L38.5383 28.8462C38.846 28.6154 39.2307 28.6154 39.4614 28.8462L44.6153 32.6923C44.923 32.9231 44.9999 33.4616 44.7691 33.7693C44.5383 34.077 43.9999 34.1539 43.6922 33.9231L38.9999 30.4616L34.7691 33.9231C34.4614 34.1539 34.0768 34.1539 33.7691 33.9231L29.5383 30.4616L24.6153 34C24.5384 34 24.3845 34.0769 24.2307 34.0769Z" fill="#ffffff"/>
<path d="M34.3077 40.0001C34.1539 40.0001 34 39.9231 33.8462 39.8462L29.6154 36.3847L25.6154 39.2308C25.3077 39.4616 24.7692 39.3847 24.5385 39.077C24.3077 38.7693 24.3846 38.2308 24.6923 38.0001L29.1539 34.7693C29.4615 34.5385 29.8462 34.6155 30.0769 34.7693L34.3077 38.2308L38.5385 34.7693C38.8462 34.5385 39.2308 34.5385 39.4616 34.7693L43.6154 37.8462C43.9231 38.077 44 38.6155 43.7692 38.9232C43.5385 39.2309 43 39.3077 42.6923 39.077L39 36.3847L34.7692 39.8462C34.6154 39.9231 34.4616 40.0001 34.3077 40.0001Z" fill="#ffffff"/>
</svg>