<svg xmlns="http://www.w3.org/2000/svg" width="50" height="50" viewBox="0 0 50 50" fill="none">
<path d="M13.37 17.2439C13.2392 17.2439 13.0431 17.1785 12.9123 17.0477C12.6508 16.7862 12.6508 16.3939 12.9123 16.1323L15.0046 13.9093L12.9123 11.8171C12.6508 11.5555 12.6508 11.1632 12.9123 10.9017C13.1738 10.6401 13.5661 10.6401 13.8277 10.9017L16.3776 13.4516C16.6391 13.7132 16.6391 14.1055 16.3776 14.367L13.8277 17.0477C13.6969 17.1785 13.5007 17.2439 13.37 17.2439Z" fill="#ffffff"/>
<path d="M8.13931 21.2323C7.74701 21.2323 7.48548 20.9707 7.48548 20.5784V19.0746C7.48548 15.8055 10.1008 13.1901 13.37 13.1901H14.4161C14.8084 13.1901 15.0699 13.4517 15.0699 13.844C15.0699 14.2363 14.8084 14.4978 14.4161 14.4978H13.37C10.82 14.4978 8.79314 16.5247 8.79314 19.0746V20.5784C8.79314 20.9707 8.46623 21.2323 8.13931 21.2323Z" fill="#ffffff"/>
<path d="M12.7162 36.8589C12.1931 36.8589 11.7355 36.7281 11.2124 36.532C10.2316 36.1397 9.51243 35.3551 9.05475 34.4397C8.20476 32.4128 9.18551 30.1244 11.147 29.3398C12.1278 28.9475 13.1739 28.9475 14.1546 29.3398C15.1354 29.7321 15.8546 30.5167 16.3123 31.4321C16.7046 32.4128 16.7046 33.4589 16.3123 34.4397C15.92 35.4204 15.1354 36.1397 14.22 36.5973C13.697 36.7281 13.2393 36.8589 12.7162 36.8589ZM12.7162 30.3206C12.3893 30.3206 12.0624 30.3859 11.7355 30.5167C11.0816 30.7782 10.5586 31.3013 10.297 31.9551C10.0355 32.609 10.0355 33.3282 10.297 33.982C10.5586 34.6358 11.0816 35.1589 11.7355 35.4204C12.3893 35.682 13.1085 35.682 13.7623 35.4204C14.4162 35.1589 14.9392 34.6358 15.2008 33.982C15.4623 33.3282 15.4623 32.609 15.2008 31.9551C14.9392 31.3013 14.4162 30.7782 13.7623 30.5167C13.37 30.3859 13.0431 30.3206 12.7162 30.3206Z" fill="#ffffff"/>
<path d="M10.2316 43.1357C10.0354 43.1357 9.83927 43.0703 9.64312 43.005L7.8124 42.2857C7.4201 42.0896 7.09318 41.7627 6.89703 41.3704C6.76626 40.9781 6.76626 40.5204 6.96241 40.0627L7.22394 39.3435C7.28933 39.2127 7.22394 39.0819 7.15856 39.0165C7.0278 38.8858 6.83164 38.6896 6.70088 38.5589C6.63549 38.4281 6.43934 38.4281 6.37396 38.4935L5.58936 38.8204C4.73938 39.1473 3.82401 38.755 3.43171 37.9704L2.64711 36.1397C2.3202 35.2897 2.7125 34.3743 3.62786 33.982L4.34708 33.7205C4.47784 33.6551 4.54323 33.5244 4.54323 33.3936C4.54323 33.1974 4.54323 32.9359 4.54323 32.7398C4.54323 32.609 4.47784 32.4782 4.34708 32.4128L3.56248 32.0859C3.17018 31.8898 2.84326 31.6283 2.64711 31.236C2.45096 30.8437 2.45096 30.386 2.64711 29.9937L3.36633 28.1629C3.56248 27.7706 3.82401 27.4437 4.2817 27.2476C4.67399 27.0514 5.13168 27.0514 5.52398 27.2476L6.30858 27.5745C6.43934 27.6399 6.57011 27.5745 6.63549 27.5091C6.76626 27.3783 6.96241 27.1822 7.09318 27.0514C7.15856 26.986 7.22394 26.7899 7.15856 26.7245L6.83165 25.9399C6.50473 25.0899 6.89703 24.1745 7.68163 23.7822L9.51236 22.9976C10.3623 22.6707 11.2777 23.063 11.67 23.9784L11.9315 24.6976C11.9969 24.8284 12.0623 24.8938 12.2585 24.8938C12.4546 24.8938 12.7161 24.8938 12.9123 24.8938C13.0431 24.8938 13.1738 24.8284 13.2392 24.6976L13.5661 23.913C13.7623 23.5207 14.0238 23.1938 14.4815 22.9976C14.8738 22.8015 15.3315 22.8015 15.7238 22.9976L17.5545 23.7169C18.4045 24.0438 18.7968 25.0245 18.4045 25.9399L18.143 26.6591C18.0776 26.7899 18.143 26.9207 18.2083 26.986C18.3391 27.1168 18.5353 27.3129 18.666 27.4437C18.7314 27.5091 18.9276 27.5745 18.9929 27.5091L19.7775 27.1822C20.1698 26.986 20.6275 26.986 21.0198 27.1822C21.4121 27.3783 21.739 27.6398 21.9352 28.0975L22.7198 29.9283C22.9159 30.3206 22.9159 30.7783 22.7198 31.1706C22.5236 31.5629 22.1967 31.9551 21.739 32.1513L21.0198 32.4128C20.8891 32.4782 20.8237 32.609 20.8237 32.7398C20.8237 32.9359 20.8237 33.1974 20.8237 33.3936C20.8237 33.5244 20.8891 33.6551 21.0198 33.7205L21.8044 34.0474C22.6544 34.3743 23.0467 35.3551 22.7198 36.2051L22.0006 38.0358C21.6737 38.8858 20.6929 39.2781 19.8429 38.9512L19.0583 38.6243C18.9276 38.5589 18.7968 38.6242 18.7314 38.6896C18.6006 38.8204 18.4045 39.0166 18.2737 39.1473C18.2083 39.2127 18.143 39.4089 18.2083 39.4742L18.5353 40.2588C18.7314 40.6511 18.7314 41.1088 18.5353 41.5011C18.3391 41.8934 18.0776 42.2203 17.6853 42.4165L15.8545 43.2011C15.4622 43.3972 15.0046 43.3972 14.6123 43.2011C14.22 43.0049 13.8277 42.678 13.6315 42.2203L13.37 41.5011C13.3046 41.3703 13.1738 41.305 13.0431 41.305C12.8469 41.305 12.5854 41.305 12.3892 41.305C12.2585 41.305 12.1277 41.3703 12.0623 41.5011L11.7354 42.2857C11.4739 42.7434 10.8854 43.1357 10.2316 43.1357ZM6.50473 37.055C6.96241 37.055 7.42009 37.2512 7.68163 37.5781C7.81239 37.7089 7.94316 37.8397 8.07393 37.9704C8.597 38.4281 8.72776 39.1473 8.46623 39.8012L8.20469 40.5204C8.13931 40.6511 8.13931 40.7819 8.20469 40.8473C8.20469 40.9127 8.27008 40.9781 8.40085 41.0435L10.2316 41.7627C10.4277 41.828 10.5585 41.7627 10.6893 41.5665L11.0162 40.7819C11.2777 40.1281 11.8662 39.7358 12.5854 39.8012C12.7815 39.8012 12.9777 39.8012 13.1084 39.8012C13.8277 39.8012 14.4161 40.1935 14.6776 40.7819L14.9392 41.5011C15.0046 41.6319 15.0699 41.7627 15.2007 41.7627C15.2661 41.7627 15.3315 41.7627 15.3969 41.7627L17.2276 40.978C17.3584 40.9127 17.3584 40.8473 17.4237 40.7819C17.4237 40.7165 17.4891 40.6511 17.4237 40.5204L17.0968 39.7358C16.8353 39.082 16.9661 38.3627 17.4891 37.905C17.6199 37.7743 17.7507 37.6435 17.8814 37.5127C18.3391 36.9897 19.0583 36.8589 19.7122 37.1205L20.4968 37.4474C20.6929 37.5128 20.8237 37.4473 20.9544 37.2512L21.6737 35.4205C21.739 35.2243 21.6737 35.0935 21.4775 34.9628L20.6929 34.6359C20.0391 34.3743 19.6468 33.7205 19.7122 33.0667C19.7122 32.8705 19.7122 32.6744 19.7122 32.5436C19.7122 31.8898 20.1045 31.2359 20.6929 30.9744L21.4121 30.7129C21.5429 30.6475 21.6737 30.5821 21.6737 30.4513C21.6737 30.386 21.6737 30.3206 21.6737 30.2552L20.8891 28.4244C20.8237 28.2937 20.7583 28.2937 20.6929 28.2283C20.6275 28.1629 20.5621 28.1629 20.4314 28.2283L19.6468 28.5552C18.9929 28.8168 18.2737 28.686 17.816 28.1629C17.6853 28.0322 17.5545 27.9014 17.4237 27.7706C16.9007 27.3129 16.7699 26.5937 17.0314 25.9399L17.293 25.2207C17.4237 24.9592 17.3584 24.763 17.1622 24.6976L15.3315 23.9784C15.2007 23.913 15.1353 23.9784 15.0699 23.9784C15.0046 23.9784 14.9392 24.0438 14.8738 24.1745L14.5469 24.9591C14.2853 25.613 13.6315 26.0053 12.9777 25.9399C12.7815 25.9399 12.5854 25.9399 12.4546 25.9399C11.8008 26.0053 11.1469 25.5476 10.8854 24.9591L10.6239 24.2399C10.4931 23.9784 10.3623 23.913 10.1662 23.9784L8.33546 24.763C8.27008 24.8284 8.2047 24.8284 8.13931 24.9591C8.13931 25.0245 8.07393 25.0899 8.13931 25.2207L8.46623 26.0053C8.72776 26.6591 8.597 27.3783 8.07393 27.836C7.94316 27.9668 7.81239 28.0975 7.68163 28.2283C7.22394 28.7514 6.50473 28.8822 5.8509 28.6206L5.06629 28.2937C4.93553 28.2283 4.87015 28.2937 4.80476 28.2937C4.73938 28.2937 4.67399 28.3591 4.60861 28.4899L3.8894 30.3206C3.82401 30.4513 3.8894 30.5167 3.8894 30.5821C3.8894 30.6475 3.95478 30.7129 4.08554 30.7783L4.87015 31.1052C5.52398 31.3667 5.91628 32.0205 5.8509 32.6744C5.8509 32.8705 5.8509 33.0667 5.8509 33.1975C5.8509 33.8513 5.4586 34.5051 4.87015 34.7666L4.15093 35.0282C3.8894 35.1589 3.82401 35.2897 3.8894 35.4859L4.67399 37.3166C4.73938 37.4474 4.80476 37.4474 4.87015 37.5127C4.93553 37.5127 5.00091 37.5781 5.13168 37.5127L5.91628 37.1858C6.04704 37.1204 6.2432 37.055 6.50473 37.055Z" fill="#ffffff"/>
<path d="M28.4081 21.1669C26.2505 21.1669 24.4851 19.4015 24.4851 17.2439C24.4851 15.0862 26.2505 13.3209 28.4081 13.3209C30.5658 13.3209 32.3311 15.0862 32.3311 17.2439C32.3311 19.4015 30.5658 21.1669 28.4081 21.1669ZM28.4081 14.6285C26.9697 14.6285 25.7928 15.8054 25.7928 17.2439C25.7928 18.6823 26.9697 19.8592 28.4081 19.8592C29.8466 19.8592 31.0235 18.6823 31.0235 17.2439C31.0235 15.8054 29.8466 14.6285 28.4081 14.6285Z" fill="#ffffff"/>
<path d="M29.3889 27.7052H27.4275C26.5121 27.7052 25.7929 26.986 25.7929 25.9399V25.1553C25.7929 25.0245 25.7275 24.8937 25.5967 24.8283C25.4006 24.763 25.2044 24.6976 25.0083 24.5668C24.8775 24.5015 24.7467 24.5668 24.6813 24.6322L24.0929 25.2207C23.5045 25.8091 22.3929 25.8091 21.8045 25.2207L20.4314 23.8476C20.1045 23.5207 19.9738 23.1284 19.9738 22.6707C19.9738 22.213 20.1699 21.8207 20.4314 21.4938L21.0199 20.9053C21.0853 20.84 21.1507 20.6438 21.0853 20.5131C21.0199 20.3169 20.8891 20.1207 20.8237 19.9246C20.7584 19.7938 20.6276 19.7285 20.4968 19.7285H19.6468C18.7315 19.7285 18.0123 19.0092 18.0123 18.0939V16.1324C18.0123 15.217 18.7315 14.4978 19.7776 14.4978H20.5622C20.693 14.4978 20.8237 14.4324 20.8891 14.3016C20.9545 14.1055 21.0199 13.9093 21.1507 13.7132C21.216 13.5824 21.1507 13.4517 21.0853 13.3863L20.4968 12.7978C20.1699 12.4709 20.0391 12.0786 20.0391 11.6209C20.0391 11.1633 20.2353 10.7709 20.4968 10.444L21.8699 9.07098C22.5237 8.41715 23.5698 8.41714 24.2237 9.13635L24.7467 9.65945C24.8121 9.72483 25.0083 9.7902 25.0737 9.72482C25.2698 9.65943 25.4659 9.52865 25.6621 9.46327C25.7929 9.39789 25.8583 9.26712 25.8583 9.13635V8.28638C25.8583 7.37101 26.5775 6.65179 27.4928 6.65179H29.4543C30.3697 6.65179 31.0889 7.37102 31.0889 8.41715V9.20176C31.0889 9.33253 31.1543 9.46329 31.2851 9.52868C31.4812 9.59406 31.6774 9.65942 31.8735 9.79019C32.0043 9.85557 32.135 9.7902 32.2004 9.72482L32.7889 9.13635C33.3773 8.5479 34.4889 8.5479 35.0773 9.13635L36.4503 10.5094C36.7773 10.8363 36.908 11.2286 36.908 11.6863C36.908 12.144 36.7119 12.5363 36.4503 12.8632L35.8619 13.4517C35.7965 13.5171 35.7311 13.7132 35.7965 13.844C35.8619 14.0401 35.9927 14.2363 36.0581 14.4324C36.1234 14.5632 36.2542 14.6286 36.385 14.6286H37.2349C38.1503 14.6286 38.8695 15.3478 38.8695 16.2631V18.2246C38.8695 19.14 38.1503 19.8592 37.1042 19.8592H36.3196C36.1888 19.8592 36.058 19.9246 35.9927 20.0554C35.9273 20.2515 35.8619 20.4477 35.7311 20.6438C35.6658 20.7746 35.7311 20.9054 35.7965 20.9708L36.385 21.5592C36.7119 21.8861 36.8426 22.2784 36.8426 22.7361C36.8426 23.1938 36.6465 23.5861 36.385 23.913L35.0119 25.286C34.3581 25.9399 33.3119 25.9399 32.6581 25.2207L32.1351 24.6976C32.0697 24.6322 31.8735 24.5668 31.8081 24.6322C31.612 24.6976 31.4158 24.8284 31.2197 24.8938C31.0889 24.9591 31.0235 25.0899 31.0235 25.2207V26.0706C31.0235 26.986 30.3043 27.7052 29.3889 27.7052ZM24.8121 23.3245C25.0737 23.3245 25.2698 23.3899 25.466 23.4553C25.6621 23.5207 25.7929 23.5861 25.989 23.6515C26.6428 23.913 27.0352 24.5014 27.0352 25.1553V25.9399C27.0352 26.2014 27.1659 26.3976 27.3621 26.3976H29.3236C29.5197 26.3976 29.6505 26.2668 29.6505 26.0706V25.2207C29.6505 24.5668 30.1082 23.913 30.6966 23.7169C30.8928 23.6515 31.0235 23.5861 31.2197 23.5207C31.8081 23.2591 32.5927 23.3899 33.0504 23.8476L33.5735 24.3707C33.7043 24.5015 33.7696 24.5014 33.9004 24.5014C33.9658 24.5014 34.0312 24.5014 34.0966 24.4361L35.4696 23.063C35.535 22.9976 35.535 22.8669 35.535 22.8015C35.535 22.7361 35.535 22.6707 35.4696 22.5399L34.8811 21.9515C34.4235 21.4938 34.2927 20.7092 34.5542 20.1208C34.6196 19.9246 34.685 19.7938 34.7504 19.5977C35.0119 18.9438 35.6004 18.5516 36.2542 18.5516H37.0388C37.3003 18.5516 37.4965 18.4208 37.4965 18.2246V16.2631C37.4965 16.067 37.3657 15.9362 37.1696 15.9362H36.3196C35.6657 15.9362 35.0119 15.4786 34.8158 14.8901C34.7504 14.694 34.685 14.5632 34.6196 14.367C34.3581 13.7786 34.4888 12.994 34.9465 12.5363L35.535 11.9479C35.6004 11.8825 35.6004 11.7517 35.6004 11.6863C35.6004 11.6209 35.6004 11.5555 35.535 11.4248L34.1619 10.0517C34.0965 9.98635 33.9658 9.98637 33.9004 9.98637C33.835 9.98637 33.7696 9.98635 33.6389 10.0517L33.0504 10.6402C32.5927 11.0979 31.8081 11.2287 31.2197 10.9671C31.0235 10.9017 30.8928 10.8363 30.6966 10.7709C30.0428 10.5094 29.6505 9.92096 29.6505 9.26713V8.48252C29.6505 8.22099 29.5197 8.02487 29.3236 8.02487H27.3621C27.1659 8.02487 27.0352 8.15563 27.0352 8.35178V9.20176C27.0352 9.85559 26.5775 10.5094 25.989 10.7056C25.7929 10.771 25.6621 10.8363 25.466 10.9017C24.8775 11.1632 24.0929 11.0325 23.6352 10.5748L23.1122 10.0517C22.9814 9.92097 22.916 9.92096 22.7852 9.92096C22.7199 9.92096 22.6545 9.92098 22.5891 9.98637L21.216 11.3594C21.1507 11.4248 21.1507 11.5556 21.1507 11.6209C21.1507 11.6863 21.1507 11.7517 21.216 11.8825L21.8045 12.4709C22.2622 12.9286 22.3929 13.7132 22.1314 14.3016C22.066 14.4978 22.0006 14.6286 21.9353 14.8247C21.6737 15.4785 21.0853 15.8709 20.4314 15.8709H19.6468C19.3853 15.8709 19.1892 16.0016 19.1892 16.1978V18.1593C19.1892 18.3554 19.3199 18.4862 19.5161 18.4862H20.3661C21.0199 18.4862 21.6737 18.9439 21.8699 19.5323C21.9353 19.7285 22.0006 19.8592 22.066 20.0554C22.3276 20.6438 22.1968 21.4284 21.7391 21.8861L21.1507 22.4746C21.0853 22.5399 21.0853 22.6707 21.0853 22.7361C21.0853 22.8015 21.0853 22.8669 21.1507 22.9976L22.5237 24.3707C22.5891 24.4361 22.7199 24.4361 22.7852 24.4361C22.8506 24.4361 22.916 24.4361 23.0468 24.3707L23.6352 23.7822C24.0275 23.5207 24.4198 23.3245 24.8121 23.3245Z" fill="#ffffff"/>
<path d="M26.9696 36.9897V31.5629H28.0157V35.9435H30.3041V36.9243H26.9696V36.9897Z" fill="#ffffff"/>
<path d="M31.3504 36.9897V31.5629H33.0504C33.3773 31.5629 33.6388 31.5629 33.835 31.6283C34.4234 31.8244 34.8157 32.2821 34.8157 32.9359C34.8157 33.459 34.5542 33.8513 34.0965 34.1128C34.7503 34.3744 35.0119 34.8974 35.0119 35.3551C35.0119 36.0743 34.6196 36.5974 34.0311 36.8589C33.835 36.9243 33.6388 36.9897 33.2465 36.9897H31.3504ZM33.0504 33.7859C33.2465 33.7859 33.3119 33.7859 33.3773 33.7205C33.5734 33.6552 33.7696 33.3936 33.7696 33.1321C33.7696 32.8705 33.6388 32.7398 33.3773 32.609C33.3119 32.609 33.1811 32.5436 33.0504 32.5436H32.3965V33.7205H33.0504V33.7859ZM33.1811 35.9435C33.3773 35.9435 33.508 35.9436 33.6388 35.8782C33.835 35.7474 33.9657 35.5512 33.9657 35.2897C33.9657 35.0282 33.835 34.8321 33.5734 34.7013C33.508 34.6359 33.3119 34.6359 33.1811 34.6359H32.3965V35.9435H33.1811Z" fill="#ffffff"/>
<path d="M35.7963 34.5706V33.7206H38.4117V34.5706H35.7963Z" fill="#ffffff"/>
<path d="M39.5884 36.9897V31.5629H42.8576V32.5436H40.6346V33.7205H42.4653V34.7013H40.6346V36.9897H39.5884Z" fill="#ffffff"/>
<path d="M45.0808 36.9897V32.609H43.7078V31.6283H47.5V32.609H46.1269V36.9897H45.0808Z" fill="#ffffff"/>
</svg>